<?xml version="1.0" standalone="no"?>
<!DOCTYPE svg PUBLIC "-//W3C//DTD SVG 20010904//EN"
 "http://www.w3.org/TR/2001/REC-SVG-20010904/DTD/svg10.dtd">
<svg version="1.0" xmlns="http://www.w3.org/2000/svg"
 width="583.000000pt" height="428.000000pt" viewBox="0 0 583.000000 428.000000"
 preserveAspectRatio="xMidYMid meet">
<metadata>
Created by potrace 1.16, written by Peter Selinger 2001-2019
</metadata>
<g transform="translate(0.000000,428.000000) scale(0.100000,-0.100000)"
fill="#000000" stroke="none">
<path d="M4245 4013 c-19 -4 -126 -26 -485 -99 -96 -20 -236 -49 -310 -65 -74
-15 -162 -33 -195 -38 -33 -6 -136 -26 -230 -46 -93 -19 -173 -35 -177 -35 -4
0 -8 -74 -8 -164 l0 -163 38 -7 c20 -3 277 -6 570 -6 l532 0 -2 -957 -3 -956
-85 -19 c-47 -10 -121 -25 -165 -34 -88 -17 -344 -70 -555 -114 -74 -16 -155
-31 -180 -35 -25 -4 -67 -13 -95 -20 l-50 -12 -3 -161 -2 -161 42 -6 c24 -3
365 -5 758 -3 l715 3 3 1408 2 1407 -30 0 -30 0 0 145 c0 157 3 151 -55 138z"/>
<path d="M1130 2325 l0 -1405 173 -2 172 -3 3 -223 c1 -122 6 -222 11 -222 8
0 61 37 71 51 5 6 172 117 232 155 55 34 201 136 228 158 14 12 46 36 72 54
l46 32 256 0 256 0 0 160 0 160 -590 0 -590 0 0 1080 0 1080 590 0 590 0 0
165 0 165 -760 0 -760 0 0 -1405z"/>
<path d="M3635 3264 c-55 -13 -145 -30 -200 -39 -153 -25 -358 -64 -482 -92
l-113 -26 0 -163 0 -164 480 0 480 0 0 164 c0 155 -1 164 -20 169 -18 5 -20
14 -20 91 0 63 -3 86 -12 85 -7 -1 -58 -12 -113 -25z"/>
<path d="M1700 2945 l0 -165 475 0 475 0 0 165 0 165 -475 0 -475 0 0 -165z"/>
<path d="M3665 2654 c-100 -20 -347 -71 -505 -104 -74 -16 -164 -34 -200 -40
-36 -7 -77 -14 -92 -17 l-28 -5 0 -163 0 -164 53 -6 c28 -3 243 -5 477 -3
l425 3 3 168 c2 162 2 167 -18 167 -19 0 -20 6 -20 90 0 66 -3 90 -12 89 -7
-1 -44 -8 -83 -15z"/>
<path d="M1700 2325 l0 -165 475 0 475 0 0 165 0 165 -475 0 -475 0 0 -165z"/>
<path d="M3605 2018 c-77 -16 -188 -41 -246 -54 -58 -13 -144 -29 -190 -34
-46 -6 -139 -23 -206 -37 l-123 -26 0 -169 0 -168 480 0 480 0 0 170 c0 163
-1 170 -20 170 -19 0 -20 7 -20 90 0 50 -3 89 -7 89 -5 -1 -71 -15 -148 -31z"/>
<path d="M1700 1700 l0 -170 475 0 475 0 0 170 0 170 -475 0 -475 0 0 -170z"/>
<path d="M2397 523 l-37 -4 2 -202 3 -202 65 -3 c37 -2 82 3 105 11 43 15 85
65 85 101 0 30 -37 87 -61 93 -18 5 -17 8 11 40 45 51 37 123 -18 152 -22 11
-107 19 -155 14z m130 -238 c70 -46 23 -135 -72 -135 l-35 0 0 81 0 82 43 -7
c23 -4 52 -13 64 -21z"/>
<path d="M2785 516 c-126 -57 -157 -266 -53 -363 77 -72 215 -53 275 38 47 72
43 197 -9 272 -41 58 -143 84 -213 53z m147 -63 c38 -36 51 -83 46 -160 -4
-62 -7 -68 -46 -104 -30 -28 -50 -39 -73 -39 -89 0 -154 105 -130 211 12 54
38 89 82 112 43 22 84 16 121 -20z"/>
<path d="M3205 516 c-72 -33 -115 -111 -115 -206 0 -134 85 -212 216 -197 161
18 214 280 77 384 -42 32 -130 42 -178 19z m120 -40 c76 -32 106 -184 51 -267
-50 -74 -125 -78 -190 -9 l-38 41 4 79 c4 89 21 123 79 152 41 22 50 22 94 4z"/>
<path d="M1870 315 l0 -205 115 0 115 0 0 25 c0 25 -1 25 -85 25 l-85 0 0 70
0 70 75 0 c73 0 75 1 75 25 0 24 -2 25 -75 25 l-75 0 0 65 0 65 80 0 c73 0 80
2 80 20 0 19 -7 20 -110 20 l-110 0 0 -205z"/>
<path d="M3532 318 l3 -203 28 -3 27 -3 0 76 c0 61 4 82 20 102 l19 25 36 -54
c77 -115 101 -143 128 -146 15 -2 27 1 27 5 0 9 -25 47 -96 150 -22 32 -44 63
-47 70 -4 7 22 46 63 93 38 45 70 83 70 86 0 2 -15 4 -32 4 -29 -1 -41 -11
-108 -95 l-75 -94 -3 94 -3 95 -30 0 -29 0 2 -202z"/>
</g>
</svg>
